<svg version="1.1" viewBox="0 0 666.67 666.67" xmlns="http://www.w3.org/2000/svg">
    <g transform="matrix(1.3333 0 0 -1.3333 0 666.67)">
        <g transform="translate(-30.406 -2.9264)">
            <g transform="matrix(2.7449 0 0 2.7449 -83.938 -773.67)">
                <g transform="translate(-28.301 197.53)">
                    <g>
                        <g>
                            <g>
                                <path
                                    d="m181.77 205.01c0-6.291 5.101-11.392 11.392-11.392s11.391 5.101 11.391 11.392-5.1 11.391-11.391 11.391-11.392-5.1-11.392-11.391m-86.4-29.604c0-22.642 18.355-40.996 40.996-40.996h40.996v40.996c0 22.641-18.354 40.995-40.996 40.995-22.641 0-40.996-18.354-40.996-40.995m20 0c0 11.576 9.419 20.996 20.996 20.996s20.996-9.42 20.996-20.996v-20.996h-20.996c-11.577 0-20.996 9.418-20.996 20.996m66.4-40.996h22.783v34.276c0 12.584-10.2 22.784-22.783 22.784z" />
                            </g>
                        </g>
                    </g>
                </g>
            </g>
            <g transform="matrix(1.4251 0 0 1.4251 -169.48 -141.06)">
                <path transform="scale(1,-1)" d="m408.5-341.39h7.4817v20.201h-7.4817z"
                    stroke-width=".5943" />
                <path transform="scale(1,-1)" d="m434.69-357.47h7.4817v52.372h-7.4817z"
                    stroke-width=".95692" />
                <path transform="scale(1,-1)" d="m421.59-347.37h7.4817v32.171h-7.4817z"
                    stroke-width=".75" />
            </g>
        </g>
    </g>
</svg>