<svg width="666.67" height="666.67" version="1.1" viewBox="0 0 666.67 666.67" xmlns="http://www.w3.org/2000/svg">
 <defs>
  <clipPath id="clipPath148">
   <path d="m0 500h500v-500h-500z"/>
  </clipPath>
  <clipPath id="clipPath156">
   <path d="m515.97 500h750v-500h-750z"/>
  </clipPath>
  <linearGradient id="linearGradient174" x2="1" gradientTransform="matrix(0 -178.37 -178.37 0 883.5 292.22)" gradientUnits="userSpaceOnUse">
   <stop stop-color="#a0ebff" offset="0"/>
   <stop stop-color="#5cdaff" offset="1"/>
  </linearGradient>
  <clipPath id="clipPath184">
   <path d="m0 500h500v-500h-500z"/>
  </clipPath>
  <clipPath id="clipPath192">
   <path d="m515.97 500h750v-500h-750z"/>
  </clipPath>
  <linearGradient id="linearGradient210" x2="1" gradientTransform="matrix(0 -257.99 -257.99 0 902 171.8)" gradientUnits="userSpaceOnUse">
   <stop stop-color="#fff" offset="0"/>
   <stop stop-color="#83e3ff" offset="1"/>
  </linearGradient>
  <linearGradient id="linearGradient230" x2="1" gradientTransform="matrix(0 -509.32 -509.32 0 250 628)" gradientUnits="userSpaceOnUse">
   <stop stop-color="#a3efff" offset="0"/>
   <stop stop-color="#05cdff" offset="1"/>
  </linearGradient>
  <clipPath id="clipPath240">
   <path d="m0 0h500v500h-500z"/>
  </clipPath>
  <clipPath id="clipPath248">
   <path d="m29.939 431.81h440.12v-440.12h-440.12z"/>
  </clipPath>
  <clipPath id="clipPath252">
   <path d="m470.06 211.75c0-121.54-98.526-220.06-220.06-220.06-121.54 0-220.06 98.524-220.06 220.06 0 121.54 98.525 220.06 220.06 220.06 121.54 0 220.06-98.525 220.06-220.06"/>
  </clipPath>
  <radialGradient id="radialGradient262" cx="0" cy="0" r="1" gradientTransform="matrix(220.06 0 0 -220.06 250 211.75)" gradientUnits="userSpaceOnUse">
   <stop stop-color="#fff" offset="0"/>
   <stop stop-color="#fff" stop-opacity=".29999" offset="1"/>
  </radialGradient>
  <mask id="mask264" x="0" y="0" width="1" height="1" maskUnits="userSpaceOnUse">
   <path d="m-32768 32767h65535v-65535h-65535z" fill="url(#radialGradient262)"/>
  </mask>
  <radialGradient id="radialGradient280" cx="0" cy="0" r="1" gradientTransform="matrix(220.06 0 0 -220.06 250 211.75)" gradientUnits="userSpaceOnUse">
   <stop stop-color="#05cdff" offset="0"/>
   <stop stop-color="#a3efff" offset="1"/>
  </radialGradient>
  <clipPath id="clipPath306">
   <path d="m91.939 369.81h316.12v-316.12h-316.12z"/>
  </clipPath>
  <clipPath id="clipPath310">
   <path d="m408.06 211.75c0-87.295-70.767-158.06-158.06-158.06s-158.06 70.765-158.06 158.06 70.767 158.06 158.06 158.06 158.06-70.767 158.06-158.06"/>
  </clipPath>
  <radialGradient id="radialGradient320" cx="0" cy="0" r="1" gradientTransform="matrix(158.06 0 0 -158.06 250 211.75)" gradientUnits="userSpaceOnUse">
   <stop stop-color="#fff" offset="0"/>
   <stop stop-color="#fff" stop-opacity=".70001" offset="1"/>
  </radialGradient>
  <mask id="mask322" x="0" y="0" width="1" height="1" maskUnits="userSpaceOnUse">
   <path d="m-32768 32767h65535v-65535h-65535z" fill="url(#radialGradient320)"/>
  </mask>
  <radialGradient id="radialGradient338" cx="0" cy="0" r="1" gradientTransform="matrix(158.06 0 0 -158.06 250 211.75)" gradientUnits="userSpaceOnUse">
   <stop stop-color="#05cdff" offset="0"/>
   <stop stop-color="#a3efff" offset="1"/>
  </radialGradient>
  <clipPath id="clipPath364">
   <path d="m138.45 211.75c0-61.604 49.941-111.54 111.55-111.54 61.605 0 111.55 49.941 111.55 111.54 0 61.605-49.941 111.55-111.55 111.55-61.606 0-111.55-49.941-111.55-111.55"/>
  </clipPath>
  <radialGradient id="radialGradient378" cx="0" cy="0" r="1" gradientTransform="matrix(111.55 0 0 -111.55 250 211.75)" gradientUnits="userSpaceOnUse">
   <stop stop-color="#fff" offset="0"/>
   <stop stop-color="#fff" stop-opacity=".70001" offset="1"/>
  </radialGradient>
  <mask id="mask380" x="0" y="0" width="1" height="1" maskUnits="userSpaceOnUse">
   <path d="m-32768 32767h65535v-65535h-65535z" fill="url(#radialGradient378)"/>
  </mask>
  <radialGradient id="radialGradient400" cx="0" cy="0" r="1" gradientTransform="matrix(111.55 0 0 -111.55 250 211.75)" gradientUnits="userSpaceOnUse">
   <stop stop-color="#05cdff" offset="0"/>
   <stop stop-color="#a3efff" offset="1"/>
  </radialGradient>
  <clipPath id="clipPath410">
   <path d="m0 0h500v500h-500z"/>
  </clipPath>
  <linearGradient id="linearGradient432" x2="1" gradientTransform="matrix(0 -178.37 -178.37 0 240.39 292.22)" gradientUnits="userSpaceOnUse">
   <stop stop-color="#a0ebff" offset="0"/>
   <stop stop-color="#5cdaff" offset="1"/>
  </linearGradient>
  <linearGradient id="linearGradient452" x2="1" gradientTransform="matrix(0 -186.94 -186.94 0 270.95 196.1)" gradientUnits="userSpaceOnUse">
   <stop stop-color="#a0ebff" offset="0"/>
   <stop stop-color="#72dfff" offset="1"/>
  </linearGradient>
  <linearGradient id="linearGradient472" x2="1" gradientTransform="matrix(0 -257.99 -257.99 0 268.36 171.8)" gradientUnits="userSpaceOnUse">
   <stop stop-color="#fff" offset="0"/>
   <stop stop-color="#83e3ff" offset="1"/>
  </linearGradient>
  <clipPath id="clipPath482">
   <path d="m0 500h500v-500h-500z"/>
  </clipPath>
  <linearGradient id="linearGradient660" x2="1" gradientTransform="matrix(0 -509.32 -509.32 0 375 628)" gradientUnits="userSpaceOnUse">
   <stop stop-color="#a3efff" offset="0"/>
   <stop stop-color="#05cdff" offset="1"/>
  </linearGradient>
  <clipPath id="clipPath670">
   <path d="m0 0h750v500h-750z"/>
  </clipPath>
  <clipPath id="clipPath678">
   <path d="m154.94 431.81h440.12v-440.12h-440.12z"/>
  </clipPath>
  <clipPath id="clipPath682">
   <path d="m595.06 211.75c0-121.54-98.524-220.06-220.06-220.06-121.54 0-220.06 98.524-220.06 220.06 0 121.54 98.526 220.06 220.06 220.06 121.54 0 220.06-98.525 220.06-220.06"/>
  </clipPath>
  <radialGradient id="radialGradient692" cx="0" cy="0" r="1" gradientTransform="matrix(220.06 0 0 -220.06 375 211.75)" gradientUnits="userSpaceOnUse">
   <stop stop-color="#fff" offset="0"/>
   <stop stop-color="#fff" stop-opacity=".29999" offset="1"/>
  </radialGradient>
  <mask id="mask694" x="0" y="0" width="1" height="1" maskUnits="userSpaceOnUse">
   <path d="m-32768 32767h65535v-65535h-65535z" fill="url(#radialGradient692)"/>
  </mask>
  <radialGradient id="radialGradient710" cx="0" cy="0" r="1" gradientTransform="matrix(220.06 0 0 -220.06 375 211.75)" gradientUnits="userSpaceOnUse">
   <stop stop-color="#05cdff" offset="0"/>
   <stop stop-color="#a3efff" offset="1"/>
  </radialGradient>
  <clipPath id="clipPath736">
   <path d="m216.94 369.81h316.12v-316.12h-316.12z"/>
  </clipPath>
  <clipPath id="clipPath740">
   <path d="m533.06 211.75c0-87.295-70.766-158.06-158.06-158.06s-158.06 70.765-158.06 158.06 70.767 158.06 158.06 158.06 158.06-70.767 158.06-158.06"/>
  </clipPath>
  <radialGradient id="radialGradient750" cx="0" cy="0" r="1" gradientTransform="matrix(158.06 0 0 -158.06 375 211.75)" gradientUnits="userSpaceOnUse">
   <stop stop-color="#fff" offset="0"/>
   <stop stop-color="#fff" stop-opacity=".70001" offset="1"/>
  </radialGradient>
  <mask id="mask752" x="0" y="0" width="1" height="1" maskUnits="userSpaceOnUse">
   <path d="m-32768 32767h65535v-65535h-65535z" fill="url(#radialGradient750)"/>
  </mask>
  <radialGradient id="radialGradient768" cx="0" cy="0" r="1" gradientTransform="matrix(158.06 0 0 -158.06 375 211.75)" gradientUnits="userSpaceOnUse">
   <stop stop-color="#05cdff" offset="0"/>
   <stop stop-color="#a3efff" offset="1"/>
  </radialGradient>
  <clipPath id="clipPath794">
   <path d="m263.45 211.75c0-61.604 49.94-111.54 111.54-111.54 61.606 0 111.55 49.941 111.55 111.54 0 61.605-49.94 111.55-111.55 111.55-61.605 0-111.54-49.941-111.54-111.55"/>
  </clipPath>
  <radialGradient id="radialGradient808" cx="0" cy="0" r="1" gradientTransform="matrix(111.55 0 0 -111.55 375 211.75)" gradientUnits="userSpaceOnUse">
   <stop stop-color="#fff" offset="0"/>
   <stop stop-color="#fff" stop-opacity=".70001" offset="1"/>
  </radialGradient>
  <mask id="mask810" x="0" y="0" width="1" height="1" maskUnits="userSpaceOnUse">
   <path d="m-32768 32767h65535v-65535h-65535z" fill="url(#radialGradient808)"/>
  </mask>
  <radialGradient id="radialGradient830" cx="0" cy="0" r="1" gradientTransform="matrix(111.55 0 0 -111.55 375 211.75)" gradientUnits="userSpaceOnUse">
   <stop stop-color="#05cdff" offset="0"/>
   <stop stop-color="#a3efff" offset="1"/>
  </radialGradient>
  <clipPath id="clipPath840">
   <path d="m0 0h750v500h-750z"/>
  </clipPath>
  <linearGradient id="linearGradient862" x2="1" gradientTransform="matrix(0 -178.37 -178.37 0 367.53 292.22)" gradientUnits="userSpaceOnUse">
   <stop stop-color="#a0ebff" offset="0"/>
   <stop stop-color="#5cdaff" offset="1"/>
  </linearGradient>
  <linearGradient id="linearGradient882" x2="1" gradientTransform="matrix(0 -186.94 -186.94 0 378.53 196.1)" gradientUnits="userSpaceOnUse">
   <stop stop-color="#a0ebff" offset="0"/>
   <stop stop-color="#72dfff" offset="1"/>
  </linearGradient>
  <linearGradient id="linearGradient902" x2="1" gradientTransform="matrix(0 -257.99 -257.99 0 386.03 171.8)" gradientUnits="userSpaceOnUse">
   <stop stop-color="#fff" offset="0"/>
   <stop stop-color="#83e3ff" offset="1"/>
  </linearGradient>
  <clipPath id="clipPath912">
   <path d="m0 500h750v-500h-750z"/>
  </clipPath>
  <clipPath id="clipPath944">
   <path d="m0 500h750v-500h-750z"/>
  </clipPath>
  <clipPath id="clipPath952">
   <path d="m-515.97 500h500v-500h-500z"/>
  </clipPath>
  <linearGradient id="linearGradient970" x2="1" gradientTransform="matrix(0 -186.94 -186.94 0 -245.02 196.1)" gradientUnits="userSpaceOnUse">
   <stop stop-color="#a0ebff" offset="0"/>
   <stop stop-color="#72dfff" offset="1"/>
  </linearGradient>
  <clipPath id="clipPath980">
   <path d="m0 500h750v-500h-750z"/>
  </clipPath>
  <clipPath id="clipPath988">
   <path d="m-515.97 500h500v-500h-500z"/>
  </clipPath>
  <linearGradient id="linearGradient1006" x2="1" gradientTransform="matrix(0 -257.99 -257.99 0 -247.61 171.8)" gradientUnits="userSpaceOnUse">
   <stop stop-color="#fff" offset="0"/>
   <stop stop-color="#83e3ff" offset="1"/>
  </linearGradient>
 </defs>
 <g transform="matrix(1.3333 0 0 -1.3333 0 666.67)">
  <g clip-path="url(#clipPath148)">
   <g clip-path="url(#clipPath156)">
    <path d="m1300.5 232.13c-2.766 0-5.344-0.787-7.545-2.129-8.753 16.658-26.213 28.026-46.337 28.026-0.01 0-0.017-1e-3 -0.027-1e-3 -0.276 5.591-4.884 10.042-10.543 10.042-4.301 0-7.994-2.572-9.645-6.259-4.75 2.315-10.084 3.617-15.724 3.617-13.155 0-24.654-7.073-30.917-17.619-5.576 1.429-11.42 2.191-17.442 2.191-16.246 0-31.187-5.548-43.068-14.831-16.352 22.189-42.665 36.588-72.344 36.588-42.348 0-77.846-29.313-87.324-68.753-0.389 0.034-0.782 0.059-1.181 0.059-7.252 0-13.132-5.879-13.132-13.132 0-0.74 0.076-1.46 0.193-2.166-1.084-0.348-2.148-0.739-3.194-1.167-1.655 2.033-4.175 3.333-7 3.333-3.331 0-6.233-1.809-7.796-4.493-4.243 2.787-9.317 4.413-14.773 4.413-13.262 0-24.279-9.581-26.527-22.198h-7.701c0.132 1.392 0.205 2.801 0.205 4.228 0 21.236-14.926 38.976-34.857 43.328 0.129 0.779 0.213 1.573 0.213 2.389 0 8.026-6.506 14.534-14.534 14.534-2.766 0-5.344-0.787-7.545-2.129-8.753 16.658-26.213 28.026-46.337 28.026-8e-3 0-0.017-1e-3 -0.027-1e-3 -0.276 5.591-4.884 10.042-10.543 10.042-4.301 0-7.995-2.572-9.645-6.259-4.75 2.315-10.084 3.617-15.724 3.617-13.155 0-24.654-7.073-30.917-17.619-5.576 1.429-11.42 2.191-17.442 2.191-13.976 0-26.985-4.111-37.915-11.166-16.47 20.097-41.485 32.923-69.497 32.923-42.348 0-77.845-29.313-87.324-68.753-0.389 0.034-0.782 0.059-1.181 0.059-7.252 0-13.132-5.879-13.132-13.132 0-0.74 0.076-1.46 0.193-2.166-1.084-0.348-2.148-0.739-3.194-1.167-1.655 2.033-4.175 3.333-7 3.333-3.331 0-6.233-1.809-7.796-4.493-0.96 0.63-1.968 1.193-3.008 1.699v-185.97h844v230.07c-1.552 0.566-3.219 0.89-4.966 0.89" fill="url(#linearGradient174)"/>
   </g>
  </g>
  <g clip-path="url(#clipPath184)">
   <g clip-path="url(#clipPath192)">
    <path d="m1303.9 97.089c-0.566 0-1.118-0.059-1.656-0.156-3.524 22.165-22.718 39.109-45.875 39.109-2.514 0-4.98-0.206-7.385-0.591-1.863 5.386-6.528 10.038-12.003 10.038-1.194 0-2.344-0.237-3.441-0.638-10.659 12.956-25.775 22.091-42.997 25.106 0.246 3.561-1.296 7.383-4.447 8.734-2.271 0.975-4.897 0.457-7.09-0.89-0.834 1.8-1.95 3.572-3.38 5.296-6.363 7.66-17.247 12.442-27.26 12.054-10.013 0.388-20.897-4.394-27.259-12.054-1.431-1.724-2.546-3.496-3.381-5.296-2.193 1.347-4.818 1.865-7.089 0.89-3.151-1.351-4.693-5.173-4.447-8.734-17.222-3.015-32.339-12.15-42.997-25.106-1.097 0.401-2.248 0.638-3.441 0.638-5.475 0-10.14-4.652-12.003-10.038-2.405 0.385-4.871 0.591-7.386 0.591-23.156 0-42.351-16.944-45.874-39.109-0.538 0.097-1.09 0.156-1.656 0.156-5.132 0-9.292-4.16-9.292-9.292 0-0.1 0.013-0.195 0.015-0.294-38.298 2.669-55.77-15.153-90.107-16.98-48.057-2.556-40.974 79.79-83.256 61.354-0.661 6.721-6.144 13.612-12.809 13.612-2.551 0-4.921-1.019-6.922-2.641-7.716 14.003-21.134 24.763-36.408 24.763-16.365 0-30.606-12.349-37.977-27.809-20.769 8.31-49.088 3.229-59.741-16.022-3.698-6.68-4.81-14.258-3.945-21.856-0.031-0.018-0.063-0.035-0.095-0.053-5.477-3.037-12.074-3.037-17.55 0l-0.096 0.053c0.866 7.598-0.247 15.176-3.943 21.856-10.653 19.251-38.973 24.332-59.741 16.022-7.372 15.46-21.614 27.809-37.979 27.809-14.664 0-27.615-9.922-35.454-23.107v-145.7h809v97.9c-0.836 0.247-1.718 0.385-2.633 0.385" fill="url(#linearGradient210)"/>
   </g>
  </g>
  <path d="m0 0h500v500h-500z" fill="url(#linearGradient230)"/>
  <g clip-path="url(#clipPath240)">
   <g clip-path="url(#clipPath248)" opacity=".5">
    <g clip-path="url(#clipPath252)">
     <g mask="url(#mask264)">
      <path d="m470.06 211.75c0-121.54-98.526-220.06-220.06-220.06-121.54 0-220.06 98.524-220.06 220.06 0 121.54 98.525 220.06 220.06 220.06 121.54 0 220.06-98.525 220.06-220.06" fill="url(#radialGradient280)"/>
     </g>
    </g>
   </g>
   <g clip-path="url(#clipPath306)" opacity=".5">
    <g clip-path="url(#clipPath310)">
     <g mask="url(#mask322)">
      <path d="m408.06 211.75c0-87.295-70.767-158.06-158.06-158.06s-158.06 70.765-158.06 158.06 70.767 158.06 158.06 158.06 158.06-70.767 158.06-158.06" fill="url(#radialGradient338)"/>
     </g>
    </g>
   </g>
  </g>
  <g clip-path="url(#clipPath364)">
   <g mask="url(#mask380)">
    <path d="m138.45 211.75c0-61.604 49.941-111.54 111.55-111.54 61.605 0 111.55 49.941 111.55 111.54 0 61.605-49.941 111.55-111.55 111.55-61.606 0-111.55-49.941-111.55-111.55" fill="url(#radialGradient400)"/>
   </g>
  </g>
  <g clip-path="url(#clipPath410)">
   <g transform="translate(325.97 211.75)">
    <path d="m0 0c0-41.956-34.013-75.969-75.969-75.969s-75.968 34.013-75.968 75.969c0 41.957 34.012 75.969 75.968 75.969s75.969-34.012 75.969-75.969" fill="#fff"/>
   </g>
  </g>
  <path d="m318.65 203c-0.39 0.034-0.783 0.059-1.182 0.059-7.252 0-13.132-5.879-13.132-13.132 0-0.739 0.076-1.46 0.193-2.167-1.084-0.347-2.148-0.738-3.194-1.166-1.654 2.033-4.175 3.333-7.001 3.333-3.33 0-6.231-1.809-7.795-4.492-4.243 2.785-9.317 4.411-14.772 4.411-13.263 0-24.28-9.581-26.528-22.197h-7.701c0.131 1.392 0.205 2.801 0.205 4.228 0 21.236-14.925 38.976-34.856 43.328 0.129 0.779 0.212 1.573 0.212 2.389 0 8.026-6.507 14.534-14.534 14.534-2.766 0-5.343-0.787-7.544-2.129-8.754 16.658-26.214 28.026-46.338 28.026-9e-3 0-0.018-1e-3 -0.027-1e-3 -0.277 5.591-4.883 10.042-10.543 10.042-4.301 0-7.995-2.573-9.646-6.259-4.749 2.315-10.083 3.617-15.723 3.617-13.156 0-24.654-7.072-30.917-17.619-5.576 1.429-11.419 2.191-17.441 2.191-19.784 0-37.651-8.203-50.386-21.394v-227.44h500v166.48h-5.349c0.743 4.655 1.137 9.426 1.137 14.29 0 49.603-40.212 89.815-89.814 89.815-42.35 0-77.848-29.313-87.324-68.754" fill="url(#linearGradient432)"/>
  <path d="m38.884 289.08c-15.475-0.434-29.411-7.627-38.884-18.732v-269.91h500v261.2c-26.604-0.14-48.664-19.419-53.158-44.766-10.633-0.501-19.107-9.255-19.107-20.011 0-3.327 0.823-6.458 2.257-9.221-4.396-2.796-8.097-6.585-10.781-11.059-2.234 0.431-4.672 0.29-7.233-0.929-3.761-1.789-6.458-5.405-6.864-9.548-0.25-2.551 0.317-4.951 1.456-6.985-10.574-1.663-18.662-10.813-18.662-21.854 0-2.625 0.459-5.141 1.298-7.476l-15.547-9.627c-6.702 13.931-20.949 23.546-37.443 23.546-14.539 0-27.325-7.477-34.744-18.79-2.633 1.719-5.773 2.727-9.152 2.727-2.88 0-5.59-0.728-7.957-2.007-0.016 0.018-0.032 0.034-0.049 0.051-2.344 2.452-2.433 6.218-0.24 8.809 2.797 3.304 4.487 7.573 4.487 12.242 0 10.5-8.513 19.012-19.012 19.012-1.68 0-3.3-0.239-4.852-0.648-5.193 17.393-21.305 30.076-40.387 30.076-4.437 0-8.713-0.687-12.728-1.96-8.012-2.539-16.737-0.073-22.158 6.349-17.376 20.589-43.368 33.668-72.42 33.668-1.246 0-2.486-0.026-3.721-0.075-0.948-0.037-1.876 0.296-2.554 0.959-1.608 1.572-3.435 2.919-5.431 3.994-1.21 0.652-1.991 1.885-1.99 3.259v0.023c0 4.591-2.307 8.64-5.825 11.056-5.264 3.614-9.682 8.345-13.3 13.605-9.57 13.92-25.603 23.048-43.773 23.048-0.507 0-1.016-7e-3 -1.526-0.021" fill="url(#linearGradient452)"/>
  <path d="m480.11 183.1c-1.432-1.724-2.546-3.497-3.381-5.298-2.194 1.35-4.82 1.867-7.091 0.892-3.151-1.351-4.691-5.174-4.446-8.734-17.222-3.014-32.338-12.15-42.996-25.107-1.097 0.402-2.248 0.64-3.442 0.64-5.475 0-10.14-4.653-12.003-10.039-2.406 0.385-4.871 0.591-7.386 0.591-23.156 0-42.35-16.944-45.873-39.109-0.539 0.097-1.09 0.156-1.657 0.156-5.132 0-9.292-4.16-9.292-9.292 0-0.1 0.012-0.195 0.015-0.294-38.299 2.669-55.77-15.154-90.107-16.98-21.973-1.169-32.419 15.413-41.327 31.994-10.573 19.683-18.981 39.366-41.929 29.36-0.662 6.72-6.143 13.613-12.81 13.613-2.55 0-4.921-1.02-6.921-2.642-7.716 14.002-21.134 24.763-36.407 24.763-16.365 0-30.607-12.349-37.979-27.81-20.768 8.311-49.087 3.23-59.741-16.02-3.696-6.681-4.809-14.258-3.944-21.857-4.197-2.318-8.052-5.026-11.389-8.05v-93.874h500v194.56c-7.664-1.505-15.076-5.657-19.894-11.459" fill="url(#linearGradient472)"/>
  <g clip-path="url(#clipPath482)">
   <g transform="translate(215.53 299.85)">
    <path d="m0 0c5.014 6.27 29.191 4.512 38.458 3.498 0.927-0.102 1.359 1.127 0.573 1.628-4.969 3.167-10.868 5.005-17.198 5.005-7.232 0-13.903-2.396-19.267-6.435-1.94-1.461-4.634-1.461-6.574 0-5.364 4.039-12.035 6.435-19.267 6.435-6.303 0-12.177-1.822-17.133-4.964-0.793-0.502-0.349-1.738 0.583-1.626 9.207 1.105 32.78 3.052 38.314-3.576 0.404-0.483 1.117-0.457 1.511 0.035" fill="#fff"/>
   </g>
   <g transform="translate(260.11 254.65)">
    <path d="m0 0c-3.07 0.732-6.378 0.629-9.582-0.481-3.661-1.267-6.618-3.649-8.625-6.634-0.28-0.417-0.66-0.73-1.087-0.949-0.427 0.219-0.807 0.532-1.087 0.949-2.007 2.985-4.964 5.367-8.625 6.634-3.204 1.11-6.512 1.213-9.582 0.481-0.487-0.116-0.483-0.813 4e-3 -0.925 4.869-1.11 17.402-4.463 18.855-8.51 0.174-0.487 0.724-0.419 0.871 0 1.424 4.057 13.985 7.4 18.854 8.51 0.486 0.112 0.49 0.809 4e-3 0.925" fill="#41a0d7"/>
   </g>
   <g transform="translate(106.67 214.07)">
    <path d="m0 0c-5.893 1.404-12.24 1.206-18.389-0.923-7.025-2.432-12.699-7.003-16.55-12.73-0.538-0.8-1.268-1.403-2.086-1.823-0.819 0.42-1.549 1.023-2.086 1.823-3.852 5.727-9.526 10.298-16.551 12.73-6.149 2.129-12.496 2.327-18.389 0.923-0.932-0.223-0.925-1.562 9e-3 -1.775 9.343-2.131 33.394-8.564 36.181-16.331 0.335-0.934 1.389-0.804 1.672 0 2.733 7.786 26.837 14.2 36.18 16.331 0.935 0.213 0.942 1.552 9e-3 1.775" fill="#fff"/>
   </g>
   <g transform="translate(135.73 308.12)">
    <path d="m0 0c-2.236 0.533-4.645 0.458-6.978-0.35-2.665-0.923-4.818-2.657-6.28-4.831-0.204-0.303-0.48-0.531-0.791-0.691-0.311 0.16-0.588 0.388-0.792 0.691-1.461 2.174-3.614 3.908-6.28 4.831-2.333 0.808-4.741 0.883-6.977 0.35-0.354-0.084-0.352-0.592 3e-3 -0.673 3.545-0.809 12.671-3.25 13.729-6.197 0.127-0.355 0.527-0.305 0.634 0 1.037 2.954 10.183 5.388 13.728 6.197 0.355 0.081 0.358 0.589 4e-3 0.673" fill="#41a0d7"/>
   </g>
   <g transform="translate(300.34 207.6)">
    <path d="m0 0c-1.628 0.389-3.382 0.334-5.081-0.255-1.94-0.672-3.508-1.934-4.572-3.517-0.149-0.221-0.351-0.387-0.576-0.503-0.227 0.116-0.428 0.282-0.577 0.503-1.064 1.583-2.632 2.845-4.573 3.517-1.698 0.589-3.452 0.644-5.08 0.255-0.258-0.062-0.256-0.431 2e-3 -0.49 2.581-0.589 9.227-2.366 9.996-4.512 0.093-0.259 0.384-0.223 0.462 0 0.756 2.151 7.415 3.923 9.996 4.512 0.259 0.059 0.261 0.428 3e-3 0.49" fill="#41a0d7"/>
   </g>
   <g transform="translate(428.97 205.62)">
    <path d="m0 0c6.305 7.884 36.705 5.673 48.357 4.397 1.166-0.126 1.71 1.418 0.721 2.048-6.249 3.983-13.666 6.293-21.625 6.293-9.093 0-17.481-3.011-24.225-8.091-2.44-1.836-5.829-1.836-8.267 0-6.745 5.08-15.133 8.091-24.227 8.091-7.923 0-15.31-2.291-21.543-6.24-0.996-0.632-0.438-2.186 0.734-2.046 11.577 1.389 41.217 3.839 48.176-4.495 0.506-0.608 1.405-0.575 1.899 0.043" fill="#fff"/>
   </g>
  </g>
 </g>
 <g transform="matrix(1.3333 0 0 -1.3333 686.67 666.67)">
  <path d="m0 0h750v500h-750z" fill="url(#linearGradient660)"/>
  <g clip-path="url(#clipPath670)">
   <g clip-path="url(#clipPath678)" opacity=".5">
    <g clip-path="url(#clipPath682)">
     <g mask="url(#mask694)">
      <path d="m595.06 211.75c0-121.54-98.524-220.06-220.06-220.06-121.54 0-220.06 98.524-220.06 220.06 0 121.54 98.526 220.06 220.06 220.06 121.54 0 220.06-98.525 220.06-220.06" fill="url(#radialGradient710)"/>
     </g>
    </g>
   </g>
   <g clip-path="url(#clipPath736)" opacity=".5">
    <g clip-path="url(#clipPath740)">
     <g mask="url(#mask752)">
      <path d="m533.06 211.75c0-87.295-70.766-158.06-158.06-158.06s-158.06 70.765-158.06 158.06 70.767 158.06 158.06 158.06 158.06-70.767 158.06-158.06" fill="url(#radialGradient768)"/>
     </g>
    </g>
   </g>
  </g>
  <g clip-path="url(#clipPath794)">
   <g mask="url(#mask810)">
    <path d="m263.45 211.75c0-61.604 49.94-111.54 111.54-111.54 61.606 0 111.55 49.941 111.55 111.54 0 61.605-49.94 111.55-111.55 111.55-61.605 0-111.54-49.941-111.54-111.55" fill="url(#radialGradient830)"/>
   </g>
  </g>
  <g clip-path="url(#clipPath840)">
   <g transform="translate(450.97 211.75)">
    <path d="m0 0c0-41.956-34.012-75.969-75.969-75.969-41.956 0-75.968 34.013-75.968 75.969 0 41.957 34.012 75.969 75.968 75.969 41.957 0 75.969-34.012 75.969-75.969" fill="#fff"/>
   </g>
  </g>
  <path d="m443.65 203c-0.39 0.034-0.783 0.059-1.181 0.059-7.253 0-13.133-5.879-13.133-13.132 0-0.739 0.076-1.46 0.193-2.167-1.084-0.347-2.149-0.738-3.194-1.166-1.655 2.033-4.175 3.333-7 3.333-3.332 0-6.232-1.809-7.797-4.492-4.242 2.785-9.315 4.411-14.771 4.411-13.264 0-24.28-9.581-26.528-22.197h-7.701c0.131 1.392 0.205 2.801 0.205 4.228 0 21.236-14.925 38.976-34.857 43.328 0.13 0.779 0.213 1.573 0.213 2.389 0 8.026-6.507 14.534-14.534 14.534-2.766 0-5.344-0.787-7.544-2.129-8.754 16.658-26.214 28.026-46.338 28.026-9e-3 0-0.017-1e-3 -0.027-1e-3 -0.276 5.591-4.884 10.042-10.543 10.042-4.3 0-7.995-2.573-9.646-6.259-4.75 2.315-10.083 3.617-15.723 3.617-13.156 0-24.654-7.072-30.917-17.619-5.577 1.429-11.42 2.191-17.441 2.191-13.977 0-26.986-4.111-37.916-11.166-16.47 20.097-41.485 32.924-69.497 32.924-27.163 0-51.505-12.059-67.973-31.115v-239.47h750v253.17c-5.976 2.377-12.493 3.684-19.317 3.684-9e-3 0-0.017-1e-3 -0.027-1e-3 -0.276 5.591-4.883 10.042-10.543 10.042-4.301 0-7.994-2.573-9.646-6.259-4.749 2.315-10.083 3.617-15.723 3.617-13.155 0-24.654-7.072-30.918-17.619-5.575 1.429-11.419 2.191-17.441 2.191-16.246 0-31.187-5.548-43.068-14.831-16.352 22.19-42.665 36.589-72.344 36.589-42.349 0-77.846-29.313-87.323-68.754" fill="url(#linearGradient862)"/>
  <path d="m655.14 289.08c-20.218-0.567-37.801-12.682-46.242-29.977-19.025-6.022-33.515-22.235-37.06-42.236-10.634-0.501-19.107-9.255-19.107-20.011 0-3.327 0.823-6.458 2.257-9.221-4.395-2.796-8.098-6.585-10.781-11.059-2.234 0.431-4.672 0.29-7.234-0.929-3.76-1.789-6.457-5.405-6.863-9.548-0.25-2.551 0.316-4.951 1.456-6.985-10.574-1.663-18.662-10.813-18.662-21.854 0-2.625 0.46-5.141 1.298-7.476l-15.547-9.627c-6.702 13.931-20.949 23.546-37.442 23.546-14.541 0-27.326-7.477-34.746-18.79-2.631 1.719-5.772 2.727-9.151 2.727-2.88 0-5.59-0.728-7.957-2.007-0.017 0.018-0.032 0.034-0.048 0.051-2.346 2.452-2.434 6.218-0.241 8.809 2.797 3.304 4.487 7.573 4.487 12.242 0 10.5-8.512 19.012-19.013 19.012-1.679 0-3.299-0.239-4.851-0.648-5.194 17.393-21.305 30.076-40.386 30.076-4.438 0-8.713-0.687-12.729-1.96-8.012-2.539-16.736-0.073-22.157 6.349-17.377 20.589-43.369 33.668-72.421 33.668-1.246 0-2.487-0.026-3.721-0.075-0.948-0.037-1.875 0.296-2.554 0.959-1.608 1.572-3.435 2.919-5.432 3.994-1.209 0.652-1.99 1.885-1.989 3.259v0.023c0 4.591-2.307 8.64-5.825 11.056-5.264 3.614-9.683 8.345-13.3 13.605-9.837 14.309-26.504 23.554-45.299 23.027-20.293-0.569-37.929-12.769-46.334-30.164-18.725-6.173-32.94-22.262-36.447-42.049-10.633-0.501-19.107-9.255-19.107-20.011 0-3.327 0.823-6.458 2.257-9.221-4.397-2.796-8.097-6.585-10.781-11.059-2.234 0.431-4.672 0.29-7.234-0.929-3.761-1.789-6.457-5.405-6.863-9.548-0.25-2.551 0.316-4.951 1.455-6.985-10.573-1.663-18.661-10.813-18.661-21.854 0-2.625 0.46-5.141 1.298-7.476l-15.547-9.627c-2.009 4.176-4.697 7.961-7.92 11.216v-130.94h750v231.32c-5.432 0.969-11.025 1.474-16.736 1.474-1.245 0-2.486-0.026-3.72-0.075-0.948-0.037-1.876 0.296-2.554 0.959-1.607 1.572-3.436 2.919-5.431 3.994-1.211 0.652-1.992 1.885-1.991 3.259v0.023c0 4.591-2.307 8.64-5.825 11.056-5.264 3.614-9.682 8.345-13.299 13.605-9.572 13.92-25.604 23.048-43.773 23.048-0.507 0-1.016-7e-3 -1.527-0.021" fill="url(#linearGradient882)"/>
  <path d="m632.36 195.15c-10.012 0.387-20.898-4.395-27.259-12.055-1.432-1.724-2.546-3.497-3.38-5.297-2.194 1.349-4.819 1.866-7.091 0.891-3.15-1.351-4.692-5.174-4.446-8.734-17.223-3.014-32.338-12.15-42.997-25.107-1.096 0.402-2.248 0.64-3.442 0.64-5.473 0-10.139-4.653-12.002-10.039-2.406 0.385-4.871 0.591-7.386 0.591-23.156 0-42.351-16.944-45.874-39.109-0.538 0.097-1.09 0.156-1.656 0.156-5.132 0-9.292-4.16-9.292-9.292 0-0.1 0.013-0.195 0.016-0.294-38.299 2.669-55.771-15.154-90.108-16.98-21.974-1.169-32.419 15.413-41.327 31.994-10.574 19.683-18.981 39.366-41.929 29.36-0.661 6.72-6.144 13.613-12.81 13.613-2.55 0-4.92-1.02-6.921-2.642-7.716 14.002-21.134 24.763-36.407 24.763-16.366 0-30.607-12.349-37.978-27.81-20.769 8.311-49.088 3.231-59.742-16.02-3.697-6.681-4.808-14.258-3.943-21.857-0.032-0.018-0.064-0.035-0.096-0.053-5.477-3.037-12.073-3.037-17.55 0l-0.096 0.053c0.867 7.599-0.247 15.176-3.943 21.857-10.653 19.251-38.973 24.331-59.741 16.02-7.372 15.461-21.614 27.81-37.979 27.81-6.03 0-11.771-1.678-16.985-4.57v-163.04h750v135.04c-3.108 0.656-6.33 1-9.633 1-2.514 0-4.98-0.206-7.385-0.591-1.863 5.386-6.528 10.039-12.003 10.039-1.194 0-2.344-0.238-3.441-0.64-10.659 12.957-25.775 22.093-42.997 25.107 0.246 3.56-1.296 7.383-4.448 8.734-2.27 0.975-4.896 0.458-7.089-0.891-0.834 1.8-1.949 3.573-3.381 5.297-6.121 7.37-16.429 12.076-26.119 12.076-0.381 0-0.761-7e-3 -1.14-0.021" fill="url(#linearGradient902)"/>
  <g clip-path="url(#clipPath912)">
   <g transform="translate(340.53 299.85)">
    <path d="m0 0c5.014 6.27 29.191 4.512 38.458 3.498 0.928-0.102 1.36 1.127 0.573 1.628-4.969 3.167-10.868 5.005-17.198 5.005-7.231 0-13.902-2.396-19.267-6.435-1.939-1.461-4.634-1.461-6.574 0-5.364 4.039-12.035 6.435-19.267 6.435-6.302 0-12.177-1.822-17.133-4.964-0.792-0.502-0.349-1.738 0.583-1.626 9.207 1.105 32.78 3.052 38.314-3.576 0.404-0.483 1.117-0.457 1.511 0.035" fill="#fff"/>
   </g>
   <g transform="translate(385.11 254.65)">
    <path d="m0 0c-3.071 0.732-6.379 0.629-9.583-0.481-3.661-1.267-6.618-3.649-8.625-6.634-0.28-0.417-0.66-0.73-1.087-0.949-0.427 0.219-0.807 0.532-1.087 0.949-2.007 2.985-4.964 5.367-8.625 6.634-3.204 1.11-6.512 1.213-9.583 0.481-0.485-0.116-0.482-0.813 5e-3 -0.925 4.869-1.11 17.402-4.463 18.855-8.51 0.174-0.487 0.724-0.419 0.871 0 1.424 4.057 13.985 7.4 18.854 8.51 0.487 0.112 0.49 0.809 5e-3 0.925" fill="#41a0d7"/>
   </g>
   <g transform="translate(231.67 214.07)">
    <path d="m0 0c-5.893 1.404-12.24 1.206-18.389-0.923-7.024-2.432-12.699-7.003-16.55-12.73-0.538-0.8-1.267-1.403-2.086-1.823-0.819 0.42-1.548 1.023-2.086 1.823-3.852 5.727-9.526 10.298-16.551 12.73-6.149 2.129-12.496 2.327-18.389 0.923-0.932-0.223-0.926-1.562 0.01-1.775 9.342-2.131 33.393-8.564 36.18-16.331 0.336-0.934 1.389-0.804 1.672 0 2.733 7.786 26.837 14.2 36.18 16.331 0.935 0.213 0.942 1.552 9e-3 1.775" fill="#fff"/>
   </g>
   <g transform="translate(260.73 308.12)">
    <path d="m0 0c-2.235 0.533-4.644 0.458-6.978-0.35-2.665-0.923-4.818-2.657-6.279-4.831-0.204-0.303-0.481-0.531-0.792-0.691-0.31 0.16-0.587 0.388-0.791 0.691-1.462 2.174-3.615 3.908-6.28 4.831-2.333 0.808-4.741 0.883-6.978 0.35-0.353-0.084-0.351-0.592 4e-3 -0.673 3.545-0.809 12.67-3.25 13.729-6.197 0.127-0.355 0.526-0.305 0.634 0 1.037 2.954 10.183 5.388 13.728 6.197 0.355 0.081 0.357 0.589 3e-3 0.673" fill="#41a0d7"/>
   </g>
   <g transform="translate(425.34 207.6)">
    <path d="m0 0c-1.628 0.389-3.382 0.334-5.08-0.255-1.941-0.672-3.509-1.934-4.573-3.517-0.149-0.221-0.35-0.387-0.576-0.503-0.227 0.116-0.428 0.282-0.577 0.503-1.064 1.583-2.632 2.845-4.573 3.517-1.698 0.589-3.452 0.644-5.08 0.255-0.258-0.062-0.256-0.431 2e-3 -0.49 2.581-0.589 9.227-2.366 9.996-4.512 0.093-0.259 0.385-0.223 0.462 0 0.756 2.151 7.415 3.923 9.996 4.512 0.259 0.059 0.261 0.428 3e-3 0.49" fill="#41a0d7"/>
   </g>
   <g transform="translate(553.98 205.62)">
    <path d="m0 0c6.304 7.884 36.704 5.673 48.356 4.397 1.166-0.126 1.71 1.418 0.721 2.048-6.249 3.983-13.665 6.293-21.625 6.293-9.093 0-17.481-3.011-24.225-8.091-2.44-1.836-5.828-1.836-8.267 0-6.745 5.08-15.133 8.091-24.227 8.091-7.923 0-15.31-2.291-21.542-6.24-0.997-0.632-0.438-2.186 0.733-2.046 11.577 1.389 41.217 3.839 48.176-4.495 0.507-0.608 1.405-0.575 1.9 0.043" fill="#fff"/>
   </g>
  </g>
  <g clip-path="url(#clipPath944)">
   <g clip-path="url(#clipPath952)">
    <path d="m-12.668 261.55c-28.063 1.512-51.78-18.298-56.459-44.687-10.633-0.5-19.107-9.254-19.107-20.01 0-3.328 0.824-6.459 2.257-9.22-4.396-2.797-8.097-6.586-10.781-11.06-2.233 0.432-4.672 0.29-7.233-0.93-3.761-1.788-6.457-5.404-6.864-9.547-0.25-2.551 0.317-4.951 1.455-6.985-10.573-1.663-18.661-10.813-18.661-21.854 0-2.624 0.459-5.141 1.298-7.477l-15.547-9.626c-6.702 13.931-20.949 23.546-37.443 23.546-14.539 0-27.325-7.477-34.744-18.79-2.633 1.719-5.773 2.727-9.152 2.727-2.88 0-5.589-0.728-7.957-2.007l-0.048 0.051c-2.345 2.453-2.434 6.218-0.241 8.809 2.797 3.304 4.487 7.572 4.487 12.242 0 10.5-8.512 19.012-19.012 19.012-1.68 0-3.3-0.239-4.852-0.648-5.193 17.393-21.305 30.076-40.387 30.076-4.437 0-8.713-0.687-12.728-1.959-8.012-2.54-16.737-0.074-22.158 6.348-17.376 20.589-43.369 33.668-72.42 33.668-1.246 0-2.486-0.026-3.721-0.075-0.947-0.037-1.876 0.296-2.554 0.959-1.607 1.572-3.434 2.919-5.431 3.994-1.21 0.652-1.991 1.885-1.99 3.259v0.023c0 4.591-2.307 8.641-5.825 11.056-5.264 3.614-9.682 8.345-13.299 13.606-9.839 14.307-26.504 23.553-45.3 23.026-27.478-0.77-50.108-22.856-51.506-50.309-0.725-14.22 4.16-27.28 12.622-37.197v-201.14h500v152.59c0.099-1e-3 0.196-7e-3 0.295-7e-3 30.732 0 55.503 25.529 54.261 56.538-1.113 27.782-23.49 50.495-51.255 51.992" fill="url(#linearGradient970)"/>
   </g>
  </g>
  <g clip-path="url(#clipPath980)">
   <g clip-path="url(#clipPath988)">
    <path d="m33.437 99.289c0 21.285-9.275 40.397-23.994 53.54 6.57 11.879 6.248 28.78-3.939 37.24-11.629 9.658-31.71 4.657-41.367-6.972-1.432-1.724-2.546-3.496-3.381-5.297-2.194 1.348-4.82 1.866-7.09 0.891-3.152-1.351-4.693-5.173-4.446-8.734-17.223-3.015-32.339-12.15-42.998-25.106-1.096 0.401-2.248 0.638-3.441 0.638-5.476 0-10.14-4.652-12.003-10.038-2.406 0.385-4.871 0.591-7.386 0.591-23.156 0-42.35-16.944-45.874-39.109-0.538 0.097-1.089 0.156-1.656 0.156-5.132 0-9.292-4.16-9.292-9.292 0-0.1 0.012-0.195 0.016-0.294-38.3 2.669-55.771-15.153-90.108-16.98-48.056-2.556-40.974 79.79-83.255 61.354-0.662 6.721-6.145 13.612-12.811 13.612-2.55 0-4.92-1.019-6.921-2.641-7.716 14.003-21.134 24.763-36.407 24.763-16.365 0-30.607-12.349-37.978-27.809-20.769 8.31-49.088 3.228-59.741-16.022-3.697-6.68-4.81-14.258-3.944-21.856-13.653-7.54-23.668-19.183-24.071-32.531-0.17-5.66 1.418-11.114 4.29-16.161v-54.428h525.52v40.568c19.441 12.839 32.276 34.874 32.276 59.917" fill="url(#linearGradient1006)"/>
   </g>
  </g>
 </g>
</svg>
